<mxfile host="app.diagrams.net" modified="2023-06-13T22:05:36.184Z" agent="Mozilla/5.0 (X11; Linux x86_64) AppleWebKit/537.36 (KHTML, like Gecko) Chrome/112.0.0.0 Safari/537.36" etag="jWuareLeCuWpAd2XohRx" version="21.2.9" type="github">
  <diagram id="C5RBs43oDa-KdzZeNtuy" name="Page-1">
    <mxGraphModel dx="1418" dy="779" grid="0" gridSize="10" guides="1" tooltips="1" connect="1" arrows="1" fold="1" page="1" pageScale="1" pageWidth="827" pageHeight="1169" math="0" shadow="0">
      <root>
        <mxCell id="WIyWlLk6GJQsqaUBKTNV-0" />
        <mxCell id="WIyWlLk6GJQsqaUBKTNV-1" parent="WIyWlLk6GJQsqaUBKTNV-0" />
        <mxCell id="mDDc2m5VIu0hLMbzycvg-22" style="edgeStyle=orthogonalEdgeStyle;rounded=0;orthogonalLoop=1;jettySize=auto;html=1;entryX=0.5;entryY=0;entryDx=0;entryDy=0;entryPerimeter=0;" edge="1" parent="WIyWlLk6GJQsqaUBKTNV-1" source="mDDc2m5VIu0hLMbzycvg-1" target="mDDc2m5VIu0hLMbzycvg-7">
          <mxGeometry relative="1" as="geometry" />
        </mxCell>
        <mxCell id="mDDc2m5VIu0hLMbzycvg-1" value="&lt;br&gt;n1, n2" style="html=1;strokeWidth=1;shape=manualInput;whiteSpace=wrap;rounded=1;size=26;arcSize=11;verticalAlign=middle;" vertex="1" parent="WIyWlLk6GJQsqaUBKTNV-1">
          <mxGeometry x="314" y="164" width="100" height="50" as="geometry" />
        </mxCell>
        <mxCell id="mDDc2m5VIu0hLMbzycvg-45" style="edgeStyle=orthogonalEdgeStyle;rounded=0;orthogonalLoop=1;jettySize=auto;html=1;entryX=0.5;entryY=0;entryDx=0;entryDy=0;" edge="1" parent="WIyWlLk6GJQsqaUBKTNV-1" source="mDDc2m5VIu0hLMbzycvg-2" target="mDDc2m5VIu0hLMbzycvg-3">
          <mxGeometry relative="1" as="geometry">
            <Array as="points">
              <mxPoint x="650" y="310" />
            </Array>
          </mxGeometry>
        </mxCell>
        <mxCell id="mDDc2m5VIu0hLMbzycvg-2" value="para i = 1 até b" style="strokeWidth=1;html=1;shape=mxgraph.flowchart.loop_limit;whiteSpace=wrap;" vertex="1" parent="WIyWlLk6GJQsqaUBKTNV-1">
          <mxGeometry x="530" y="290" width="100" height="40" as="geometry" />
        </mxCell>
        <mxCell id="mDDc2m5VIu0hLMbzycvg-37" style="edgeStyle=orthogonalEdgeStyle;rounded=0;orthogonalLoop=1;jettySize=auto;html=1;entryX=0;entryY=0.5;entryDx=0;entryDy=0;entryPerimeter=0;" edge="1" parent="WIyWlLk6GJQsqaUBKTNV-1" source="mDDc2m5VIu0hLMbzycvg-3" target="mDDc2m5VIu0hLMbzycvg-5">
          <mxGeometry relative="1" as="geometry" />
        </mxCell>
        <mxCell id="mDDc2m5VIu0hLMbzycvg-3" value="c = a * c" style="rounded=0;whiteSpace=wrap;html=1;strokeWidth=1;" vertex="1" parent="WIyWlLk6GJQsqaUBKTNV-1">
          <mxGeometry x="615" y="350" width="70" height="30" as="geometry" />
        </mxCell>
        <mxCell id="mDDc2m5VIu0hLMbzycvg-23" style="edgeStyle=orthogonalEdgeStyle;rounded=0;orthogonalLoop=1;jettySize=auto;html=1;" edge="1" parent="WIyWlLk6GJQsqaUBKTNV-1" source="mDDc2m5VIu0hLMbzycvg-7" target="mDDc2m5VIu0hLMbzycvg-20">
          <mxGeometry relative="1" as="geometry" />
        </mxCell>
        <mxCell id="mDDc2m5VIu0hLMbzycvg-7" value="func(n1, n2)" style="strokeWidth=1;html=1;shape=mxgraph.flowchart.display;whiteSpace=wrap;" vertex="1" parent="WIyWlLk6GJQsqaUBKTNV-1">
          <mxGeometry x="314" y="243" width="100" height="40" as="geometry" />
        </mxCell>
        <mxCell id="mDDc2m5VIu0hLMbzycvg-30" style="edgeStyle=orthogonalEdgeStyle;rounded=0;orthogonalLoop=1;jettySize=auto;html=1;entryX=0.5;entryY=0;entryDx=0;entryDy=0;" edge="1" parent="WIyWlLk6GJQsqaUBKTNV-1" source="mDDc2m5VIu0hLMbzycvg-9" target="mDDc2m5VIu0hLMbzycvg-10">
          <mxGeometry relative="1" as="geometry" />
        </mxCell>
        <mxCell id="mDDc2m5VIu0hLMbzycvg-9" value="func(a, b)" style="shape=process;whiteSpace=wrap;html=1;backgroundOutline=1;strokeWidth=1;" vertex="1" parent="WIyWlLk6GJQsqaUBKTNV-1">
          <mxGeometry x="520" y="100" width="120" height="30" as="geometry" />
        </mxCell>
        <mxCell id="mDDc2m5VIu0hLMbzycvg-31" style="edgeStyle=orthogonalEdgeStyle;rounded=0;orthogonalLoop=1;jettySize=auto;html=1;" edge="1" parent="WIyWlLk6GJQsqaUBKTNV-1" source="mDDc2m5VIu0hLMbzycvg-14">
          <mxGeometry relative="1" as="geometry">
            <mxPoint x="580" y="240" as="targetPoint" />
          </mxGeometry>
        </mxCell>
        <mxCell id="mDDc2m5VIu0hLMbzycvg-10" value="Início" style="ellipse;whiteSpace=wrap;html=1;strokeWidth=1;" vertex="1" parent="WIyWlLk6GJQsqaUBKTNV-1">
          <mxGeometry x="555" y="160" width="50" height="35" as="geometry" />
        </mxCell>
        <mxCell id="mDDc2m5VIu0hLMbzycvg-39" style="edgeStyle=orthogonalEdgeStyle;rounded=0;orthogonalLoop=1;jettySize=auto;html=1;" edge="1" parent="WIyWlLk6GJQsqaUBKTNV-1" source="mDDc2m5VIu0hLMbzycvg-13" target="mDDc2m5VIu0hLMbzycvg-17">
          <mxGeometry relative="1" as="geometry" />
        </mxCell>
        <mxCell id="mDDc2m5VIu0hLMbzycvg-13" value="func &amp;lt;- c" style="rounded=0;whiteSpace=wrap;html=1;strokeWidth=1;" vertex="1" parent="WIyWlLk6GJQsqaUBKTNV-1">
          <mxGeometry x="545" y="480" width="70" height="30" as="geometry" />
        </mxCell>
        <mxCell id="mDDc2m5VIu0hLMbzycvg-34" style="edgeStyle=orthogonalEdgeStyle;rounded=0;orthogonalLoop=1;jettySize=auto;html=1;entryX=0.5;entryY=0;entryDx=0;entryDy=0;entryPerimeter=0;" edge="1" parent="WIyWlLk6GJQsqaUBKTNV-1" source="mDDc2m5VIu0hLMbzycvg-14" target="mDDc2m5VIu0hLMbzycvg-2">
          <mxGeometry relative="1" as="geometry" />
        </mxCell>
        <mxCell id="mDDc2m5VIu0hLMbzycvg-17" value="Fim" style="ellipse;whiteSpace=wrap;html=1;strokeWidth=1;" vertex="1" parent="WIyWlLk6GJQsqaUBKTNV-1">
          <mxGeometry x="555" y="540" width="50" height="35" as="geometry" />
        </mxCell>
        <mxCell id="mDDc2m5VIu0hLMbzycvg-18" value="" style="group;strokeWidth=1;" vertex="1" connectable="0" parent="WIyWlLk6GJQsqaUBKTNV-1">
          <mxGeometry x="530" y="420" width="100" height="30" as="geometry" />
        </mxCell>
        <mxCell id="mDDc2m5VIu0hLMbzycvg-5" value="" style="strokeWidth=1;html=1;shape=mxgraph.flowchart.loop_limit;whiteSpace=wrap;rotation=-180;" vertex="1" parent="mDDc2m5VIu0hLMbzycvg-18">
          <mxGeometry width="100" height="30" as="geometry" />
        </mxCell>
        <mxCell id="mDDc2m5VIu0hLMbzycvg-6" value="Fim para" style="text;strokeColor=none;align=center;fillColor=none;html=1;verticalAlign=middle;whiteSpace=wrap;rounded=0;strokeWidth=1;" vertex="1" parent="mDDc2m5VIu0hLMbzycvg-18">
          <mxGeometry x="20" width="60" height="30" as="geometry" />
        </mxCell>
        <mxCell id="mDDc2m5VIu0hLMbzycvg-21" style="edgeStyle=orthogonalEdgeStyle;rounded=0;orthogonalLoop=1;jettySize=auto;html=1;exitX=0.5;exitY=1;exitDx=0;exitDy=0;entryX=0.51;entryY=0.22;entryDx=0;entryDy=0;entryPerimeter=0;" edge="1" parent="WIyWlLk6GJQsqaUBKTNV-1" source="mDDc2m5VIu0hLMbzycvg-19" target="mDDc2m5VIu0hLMbzycvg-1">
          <mxGeometry relative="1" as="geometry" />
        </mxCell>
        <mxCell id="mDDc2m5VIu0hLMbzycvg-19" value="Início" style="ellipse;whiteSpace=wrap;html=1;strokeWidth=1;" vertex="1" parent="WIyWlLk6GJQsqaUBKTNV-1">
          <mxGeometry x="340" y="97.5" width="50" height="35" as="geometry" />
        </mxCell>
        <mxCell id="mDDc2m5VIu0hLMbzycvg-20" value="Fim" style="ellipse;whiteSpace=wrap;html=1;strokeWidth=1;" vertex="1" parent="WIyWlLk6GJQsqaUBKTNV-1">
          <mxGeometry x="339" y="320" width="50" height="35" as="geometry" />
        </mxCell>
        <mxCell id="mDDc2m5VIu0hLMbzycvg-38" style="edgeStyle=orthogonalEdgeStyle;rounded=0;orthogonalLoop=1;jettySize=auto;html=1;entryX=0.5;entryY=0;entryDx=0;entryDy=0;" edge="1" parent="WIyWlLk6GJQsqaUBKTNV-1" source="mDDc2m5VIu0hLMbzycvg-6" target="mDDc2m5VIu0hLMbzycvg-13">
          <mxGeometry relative="1" as="geometry" />
        </mxCell>
        <mxCell id="mDDc2m5VIu0hLMbzycvg-44" value="" style="edgeStyle=orthogonalEdgeStyle;rounded=0;orthogonalLoop=1;jettySize=auto;html=1;" edge="1" parent="WIyWlLk6GJQsqaUBKTNV-1" source="mDDc2m5VIu0hLMbzycvg-10" target="mDDc2m5VIu0hLMbzycvg-14">
          <mxGeometry relative="1" as="geometry">
            <mxPoint x="580" y="240" as="targetPoint" />
            <mxPoint x="580" y="195" as="sourcePoint" />
          </mxGeometry>
        </mxCell>
        <mxCell id="mDDc2m5VIu0hLMbzycvg-14" value="c = a" style="rounded=0;whiteSpace=wrap;html=1;strokeWidth=1;" vertex="1" parent="WIyWlLk6GJQsqaUBKTNV-1">
          <mxGeometry x="545" y="230" width="70" height="30" as="geometry" />
        </mxCell>
      </root>
    </mxGraphModel>
  </diagram>
</mxfile>
